<svg width="72" height="65" viewBox="0 0 72 65" fill="none" xmlns="http://www.w3.org/2000/svg">
<g clip-path="url(#clip0_297080_1794)" filter="url(#filter0_d_297080_1794)">
<path d="M33.8511 29.9292H35.9833V39.5242H33.8511V29.9292Z" fill="#4D5AE5"/>
<path d="M42.3799 34.1936H44.5121V39.5242H42.3799V34.1936Z" fill="#4D5AE5"/>
<path d="M25.3221 37.392H27.4544V39.5242H25.3221V37.392Z" fill="#4D5AE5"/>
<path d="M18.9255 36.3258H21.0578V39.5241H18.9255V36.3258Z" fill="#4D5AE5"/>
<path d="M7.19833 56.5819H58.3715C60.1378 56.5819 61.5699 55.1499 61.5699 53.3836V49.1192C61.5699 47.3529 60.1378 45.9209 58.3715 45.9209H57.3054V19.3343L63.3611 13.5977C64.7666 14.2905 66.4678 13.8699 67.3876 12.6003C68.308 11.3312 68.1789 9.58364 67.0826 8.46339C65.9863 7.34314 64.2424 7.17604 62.953 8.06776C61.6641 8.96 61.206 10.6513 61.8681 12.0719L57.3054 16.3973V13.9376C57.3054 12.1713 55.8734 10.7393 54.1071 10.7393H11.4628C9.6965 10.7393 8.26443 12.1713 8.26443 13.9376V45.9209H7.19833C5.43206 45.9209 4 47.3529 4 49.1192V53.3836C4 55.1499 5.43206 56.5819 7.19833 56.5819ZM64.7682 9.67317C65.3569 9.67317 65.8343 10.1505 65.8343 10.7393C65.8343 11.328 65.3569 11.8054 64.7682 11.8054C64.1794 11.8054 63.7021 11.328 63.7021 10.7393C63.7021 10.1505 64.1794 9.67317 64.7682 9.67317ZM10.3967 13.9376C10.3967 13.3489 10.874 12.8715 11.4628 12.8715H54.1071C54.6958 12.8715 55.1732 13.3489 55.1732 13.9376V18.4149L53.041 20.441V16.0698C53.041 15.4811 52.5636 15.0037 51.9749 15.0037H13.595C13.0062 15.0037 12.5289 15.4811 12.5289 16.0698V42.7225C12.5289 43.3113 13.0062 43.7886 13.595 43.7886H51.9749C52.5636 43.7886 53.041 43.3113 53.041 42.7225V23.3738L55.1732 21.3535V45.9209H10.3967V13.9376ZM19.9916 27.797C18.5492 27.7929 17.2826 28.7538 16.899 30.1442C16.5153 31.5346 17.1093 33.0094 18.3498 33.7455C19.5898 34.4815 21.1697 34.2967 22.2061 33.2936L25.912 35.1531C26.3425 35.3686 26.8646 35.2676 27.1847 34.9079L35.0624 26.0453L42.8062 31.848C43.2216 32.1593 43.8016 32.126 44.1784 31.7694L50.9088 25.3941V41.6564H14.6611V17.1359H50.9088V22.4566L43.3658 29.5997L35.5569 23.7455C35.1134 23.4134 34.4892 23.4758 34.1207 23.8897L26.1348 32.8751L23.1493 31.3821C23.1712 31.2541 23.1847 31.125 23.19 30.9953C23.19 29.2291 21.7579 27.797 19.9916 27.797ZM21.0577 30.9953C21.0577 31.5841 20.5804 32.0615 19.9916 32.0615C19.4029 32.0615 18.9255 31.5841 18.9255 30.9953C18.9255 30.4066 19.4029 29.9292 19.9916 29.9292C20.5804 29.9292 21.0577 30.4066 21.0577 30.9953ZM27.4544 48.0531H38.1155V49.1192C38.1155 49.7079 37.6381 50.1853 37.0494 50.1853H28.5205C27.9317 50.1853 27.4544 49.7079 27.4544 49.1192V48.0531ZM6.13222 49.1192C6.13222 48.5304 6.60957 48.0531 7.19833 48.0531H25.3222V49.1192C25.3222 50.8855 26.7542 52.3175 28.5205 52.3175H37.0494C38.8156 52.3175 40.2477 50.8855 40.2477 49.1192V48.0531H58.3715C58.9603 48.0531 59.4376 48.5304 59.4376 49.1192V53.3836C59.4376 53.9724 58.9603 54.4497 58.3715 54.4497H7.19833C6.60957 54.4497 6.13222 53.9724 6.13222 53.3836V49.1192Z" fill="#2E2F42"/>
</g>
<defs>
<filter id="filter0_d_297080_1794" x="0" y="0" width="72" height="72" filterUnits="userSpaceOnUse" color-interpolation-filters="sRGB">
<feFlood flood-opacity="0" result="BackgroundImageFix"/>
<feColorMatrix in="SourceAlpha" type="matrix" values="0 0 0 0 0 0 0 0 0 0 0 0 0 0 0 0 0 0 127 0" result="hardAlpha"/>
<feOffset dy="4"/>
<feGaussianBlur stdDeviation="2"/>
<feComposite in2="hardAlpha" operator="out"/>
<feColorMatrix type="matrix" values="0 0 0 0 0 0 0 0 0 0 0 0 0 0 0 0 0 0 0.25 0"/>
<feBlend mode="normal" in2="BackgroundImageFix" result="effect1_dropShadow_297080_1794"/>
<feBlend mode="normal" in="SourceGraphic" in2="effect1_dropShadow_297080_1794" result="shape"/>
</filter>
<clipPath id="clip0_297080_1794">
<rect width="64" height="64" fill="white" transform="translate(4)"/>
</clipPath>
</defs>
</svg>
